<svg width="174" height="44" viewBox="0 0 174 44" fill="none" xmlns="http://www.w3.org/2000/svg">
<path d="M149.478 20.2351C148.958 19.9156 148.33 19.7635 147.626 19.7635C146.938 19.7635 146.326 19.9156 145.805 20.2351C145.285 20.5546 144.872 20.9959 144.566 21.5588C144.26 22.1217 144.107 22.7759 144.107 23.5214C144.107 24.2517 144.26 24.9059 144.566 25.4841C144.872 26.047 145.285 26.4882 145.805 26.8077C146.326 27.1273 146.938 27.2794 147.626 27.2794C148.682 27.2794 149.524 26.9295 150.182 26.2296C150.825 25.5297 151.146 24.6321 151.146 23.5214C151.146 22.7912 150.993 22.1369 150.702 21.5588C150.411 20.9959 149.998 20.5394 149.478 20.2351Z" fill="#18A89D"/>
<path d="M82.9756 20.2351C82.4553 19.9156 81.8279 19.7635 81.124 19.7635C80.4354 19.7635 79.8234 19.9156 79.3031 20.2351C78.7828 20.5546 78.3697 20.9959 78.0636 21.5588C77.7576 22.1217 77.6046 22.7759 77.6046 23.5214C77.6046 24.2517 77.7576 24.9059 78.0636 25.4841C78.3697 26.047 78.7828 26.4882 79.3031 26.8077C79.8234 27.1273 80.4354 27.2794 81.124 27.2794C82.1799 27.2794 83.0215 26.9295 83.6795 26.2296C84.3222 25.5297 84.6435 24.6321 84.6435 23.5214C84.6435 22.7912 84.4905 22.1369 84.1997 21.5588C83.909 20.9959 83.4959 20.5394 82.9756 20.2351Z" fill="#18A89D"/>
<path d="M44.8125 0H0.543854V44H44.7972H173.456V0H44.8125ZM43.4353 42.6307H1.93633V1.36929H43.4353V42.6307ZM71.6674 29.6833H68.8213V22.3195C68.8213 21.4979 68.5611 20.8589 68.0408 20.4025C67.5206 19.9461 66.8779 19.7178 66.1281 19.7178C65.6231 19.7178 65.1641 19.8243 64.7509 20.0221C64.3378 20.2351 64.0164 20.5242 63.7716 20.9046C63.5268 21.2849 63.4044 21.7566 63.4044 22.3043V29.668H60.5582V22.3043C60.5582 21.4827 60.2981 20.8437 59.7778 20.3873C59.2575 19.9308 58.6148 19.7026 57.865 19.7026C57.3448 19.7026 56.8857 19.8091 56.4879 20.0069C56.09 20.2199 55.7534 20.509 55.5238 20.8893C55.279 21.2697 55.1566 21.7414 55.1566 22.2891V29.6528H52.3104V17.2988H55.1566V18.5768C55.4932 18.1964 55.8911 17.8769 56.3501 17.6183C57.054 17.2379 57.8497 17.0401 58.7372 17.0401C59.6248 17.0401 60.4052 17.2227 61.1244 17.603C61.7976 17.9682 62.3332 18.4703 62.7464 19.1093C63.2054 18.4855 63.7716 17.9834 64.4602 17.6183C65.1947 17.2379 66.0057 17.0401 66.8779 17.0401C67.7807 17.0401 68.5917 17.2227 69.3109 17.603C70.0301 17.9834 70.6116 18.5159 71.04 19.2006C71.4685 19.8852 71.6827 20.7068 71.6827 21.6653V29.6833H71.6674ZM87.306 29.6833H84.4599V28.314C84.1079 28.7248 83.6948 29.0595 83.1898 29.3333C82.4553 29.7289 81.5984 29.9419 80.6497 29.9419C79.5326 29.9419 78.5074 29.6528 77.6046 29.0899C76.7018 28.527 75.9826 27.751 75.4623 26.7925C74.942 25.8188 74.6666 24.7386 74.6666 23.5367C74.6666 22.3195 74.9267 21.2241 75.4623 20.2503C75.9826 19.2766 76.7018 18.5159 77.6046 17.9378C78.5074 17.3596 79.5173 17.0705 80.6497 17.0705C81.5984 17.0705 82.44 17.2683 83.1745 17.6791C83.6795 17.953 84.0926 18.3029 84.4599 18.7137V17.3292H87.306V29.6833ZM98.8284 19.9004H95.8598V29.6833H93.0137V19.9004H90.0451V17.3292H93.0137V12.1867H95.8598V17.3292H98.8284V19.9004ZM103.358 25.4232C103.664 25.9862 104.077 26.4122 104.628 26.7317C105.179 27.0512 105.791 27.2033 106.51 27.2033C107.107 27.2033 107.673 27.0968 108.178 26.8838C108.683 26.6708 109.127 26.3513 109.479 25.9253L111.345 27.7967C110.764 28.4813 110.045 29.0138 109.203 29.379C108.362 29.7441 107.459 29.9267 106.495 29.9267C105.271 29.9267 104.169 29.6376 103.174 29.0747C102.18 28.5118 101.399 27.7358 100.833 26.7621C100.267 25.7884 99.9761 24.6929 99.9761 23.491C99.9761 22.2739 100.267 21.1784 100.833 20.2047C101.399 19.231 102.18 18.4703 103.174 17.9073C104.169 17.3444 105.271 17.0553 106.495 17.0553C107.459 17.0553 108.362 17.2379 109.203 17.603C110.045 17.9682 110.749 18.5007 111.345 19.1853L109.479 21.0871C109.111 20.6611 108.683 20.3416 108.178 20.1286C107.673 19.9156 107.107 19.8091 106.51 19.8091C105.806 19.8091 105.179 19.9613 104.628 20.2808C104.092 20.6003 103.664 21.0263 103.358 21.574C103.052 22.1217 102.899 22.7607 102.899 23.5062C102.899 24.2365 103.052 24.8755 103.358 25.4232ZM125.316 29.6833H122.47V22.5629C122.47 21.7414 122.21 21.0567 121.674 20.5242C121.154 19.9917 120.465 19.7331 119.639 19.7331C119.088 19.7331 118.599 19.8548 118.17 20.0982C117.742 20.3416 117.405 20.6763 117.16 21.1024C116.915 21.5284 116.793 22.0152 116.793 22.5629V29.6833H113.947V11.1521H116.793V18.7289C117.13 18.3181 117.543 17.9682 118.017 17.6943C118.752 17.2683 119.578 17.0705 120.481 17.0705C121.414 17.0705 122.24 17.2835 122.96 17.6943C123.679 18.1051 124.26 18.6833 124.673 19.3983C125.087 20.1286 125.301 20.9654 125.301 21.9391V29.6833H125.316ZM131.605 25.4232C131.911 25.9862 132.324 26.4122 132.875 26.7317C133.411 27.0512 134.038 27.2033 134.757 27.2033C135.354 27.2033 135.92 27.0968 136.425 26.8838C136.93 26.6708 137.374 26.3513 137.726 25.9253L139.593 27.7967C139.011 28.4813 138.292 29.0138 137.451 29.379C136.609 29.7441 135.706 29.9267 134.742 29.9267C133.518 29.9267 132.401 29.6376 131.422 29.0747C130.427 28.5118 129.647 27.7358 129.08 26.7621C128.514 25.7884 128.224 24.6929 128.224 23.491C128.224 22.2739 128.514 21.1784 129.08 20.2047C129.647 19.231 130.427 18.4703 131.422 17.9073C132.416 17.3444 133.518 17.0553 134.742 17.0553C135.706 17.0553 136.609 17.2379 137.451 17.603C138.292 17.9682 138.996 18.5007 139.593 19.1853L137.726 21.0871C137.359 20.6611 136.93 20.3416 136.425 20.1286C135.92 19.9156 135.354 19.8091 134.757 19.8091C134.054 19.8091 133.426 19.9613 132.875 20.2808C132.324 20.6003 131.911 21.0263 131.605 21.574C131.299 22.1217 131.146 22.7607 131.146 23.5062C131.161 24.2365 131.314 24.8755 131.605 25.4232ZM153.808 29.6833H150.962V28.314C150.61 28.7248 150.197 29.0595 149.692 29.3333C148.958 29.7289 148.101 29.9419 147.152 29.9419C146.035 29.9419 145.01 29.6528 144.107 29.0899C143.204 28.527 142.485 27.751 141.965 26.7925C141.444 25.8188 141.169 24.7386 141.169 23.5367C141.169 22.3195 141.429 21.2241 141.965 20.2503C142.485 19.2766 143.204 18.5159 144.107 17.9378C145.01 17.3596 146.02 17.0705 147.152 17.0705C148.101 17.0705 148.942 17.2683 149.677 17.6791C150.182 17.953 150.595 18.3029 150.962 18.7137V17.3292H153.808V29.6833ZM164.979 20.4025C164.749 20.1591 164.504 19.9917 164.229 19.8852C163.954 19.7787 163.632 19.7331 163.265 19.7331C162.469 19.7331 161.811 19.9765 161.291 20.4786C160.771 20.9806 160.511 21.7566 160.511 22.8216V29.6985H157.665V17.3444H160.511V18.6376C160.526 18.6072 160.557 18.5768 160.572 18.5311C161.276 17.5574 162.332 17.0705 163.739 17.0705C164.367 17.0705 164.918 17.177 165.423 17.4053C165.928 17.6335 166.387 17.9834 166.815 18.4855L164.979 20.4025Z" fill="#18A89D"/>
<path d="M13.3975 22C13.3975 16.9032 17.5596 12.7801 22.6705 12.7801C27.7967 12.7801 31.9435 16.9032 31.9435 22V37.2752H38.0337V22C38.0337 13.5712 31.1631 6.72476 22.6705 6.72476C14.1932 6.72476 7.30733 13.556 7.30733 22V37.2752H13.3975V22Z" fill="#18A89D"/>
<path d="M25.7156 22H19.6407V37.2752H25.7156V22Z" fill="#18A89D"/>
</svg>
